# xmcd CD database file
#
# Track frame offsets:
#	150
#	23211
#	42055
#	53718
#	73936
#	94395
#	113752
#	132878
#	143772
#	169374
#
# Disc length: 2557 seconds
#
# Revision: 0
# Processed by: cddbd v1.5.2PL0 Copyright (c) Steve Scherf et al.
# Submitted via: CDex 1.70beta2
#
DISCID=8c09fb0a
DTITLE=Soweto String Quartet - Collections
DYEAR=2007
DGENRE=Jazz
TTITLE0=Straight Lingo
TTITLE1=Zebra Crossing (Galeshewe)
TTITLE2=Nkosi Sikelel I'Africa (God Bless Africa)
TTITLE3=Take Five
TTITLE4=Skokiaan
TTITLE5=Summertime
TTITLE6=Millennia
TTITLE7=Songs My Mother Taught Me
TTITLE8=Weeping
TTITLE9=Paul Simon Graceland Collection: Homeless/Diamonds 
EXTD=YEAR: 2007
EXTT0=
EXTT1=
EXTT2=
EXTT3=
EXTT4=
EXTT5=
EXTT6=
EXTT7=
EXTT8=
EXTT9=
PLAYORDER=
